# xmcd CD database file
#
# Track frame offsets:
#	150
#	17419
#	31959
#	48086
#	65682
#	84032
#	103997
#	123531
#	138843
#	157897
#	174325
#	189882
#	208865
#	223808
#	241328
#	254961
#	271389
#	291175
#	309371
#	328362
#
# Disc length: 4619 seconds
#
# Revision: 1
# Processed by: cddbd v1.5.1PL0 Copyright (c) Steve Scherf et al.
# Submitted via: CDex 1.51
#
DISCID=23120914
DTITLE=Romanticas - As 20 mais Romanticas
DYEAR=1900
DGENRE=Rock
TTITLE0=Nothing's gonna change my love for you
TTITLE1=Stuck you
TTITLE2=Lost in your eyes
TTITLE3=Skyline pigeon
TTITLE4=Lover why
TTITLE5=Forever by your side
TTITLE6=Must have been love
TTITLE7=Broken wings
TTITLE8=This the end
TTITLE9=Unchained melody
TTITLE10=If you don't know, me by now
TTITLE11=Take my breath a way
TTITLE12=Yes
TTITLE13=Love hurst
TTITLE14=Give me your heart tonight
TTITLE15=Coming around again
TTITLE16=I just called to say a love you
TTITLE17=Say you, say me
TTITLE18=Immortality
TTITLE19=Heaven
EXTD=
EXTT0=
EXTT1=
EXTT2=
EXTT3=
EXTT4=
EXTT5=
EXTT6=
EXTT7=
EXTT8=
EXTT9=
EXTT10=
EXTT11=
EXTT12=
EXTT13=
EXTT14=
EXTT15=
EXTT16=
EXTT17=
EXTT18=
EXTT19=
PLAYORDER=
